<svg width="16" height="16" viewBox="0 0 16 16" fill="none" xmlns="http://www.w3.org/2000/svg">
<circle cx="8" cy="8" r="8" fill="#ECF7CD"/>
<ellipse opacity="0.5" cx="7.99926" cy="7.99935" rx="5.33325" ry="5.33333" fill="#D9D9D9"/>
<ellipse opacity="0.5" cx="7.99926" cy="7.99935" rx="5.33325" ry="5.33333" fill="#D9D9D9"/>
<path fill-rule="evenodd" clip-rule="evenodd" d="M11.427 3.9133C10.8374 3.9549 10.1302 4.19738 10.0001 4.95017C9.87322 5.68414 10.4404 5.93598 10.9613 6.16726C11.3312 6.33154 11.6779 6.48545 11.7358 6.79439C11.7929 7.09914 11.5067 7.10217 11.1351 7.10611C10.5995 7.11179 9.88655 7.11934 9.76762 8.0342C9.65113 8.93028 10.4103 9.14245 11.0055 9.3088C11.4396 9.43015 11.7866 9.52712 11.6428 9.84742C11.3399 10.5222 11.0736 11.5517 11.7682 11.7729C10.8032 12.7367 9.47084 13.3327 7.99926 13.3327C7.71262 13.3327 7.43127 13.3101 7.15688 13.2665C7.28164 12.816 7.52359 12.3885 7.95443 12.1101C9.22521 11.2887 9.73662 10.1419 7.28804 8.7161C6.9161 8.45264 6.03585 8.0838 5.49034 8.7161C4.80846 9.50648 5.24239 10.2659 5.49034 10.6533C5.53499 10.7231 5.60677 10.7979 5.68859 10.8831C6.03439 11.2434 6.55943 11.7904 5.97255 12.9341C4.03221 12.1363 2.66602 10.2274 2.66602 7.99935C2.66602 7.85514 2.67174 7.71226 2.68297 7.57094C3.00056 8.32235 3.76136 8.76383 4.298 8.96154C5.07081 9.24627 5.39621 8.41534 4.86744 8.33399C4.33868 8.25264 3.49614 7.21833 4.93717 7.26482C6.10967 7.30264 6.11659 6.71343 6.12227 6.2296C6.12357 6.11879 6.12481 6.0135 6.13997 5.92254C6.19986 5.56316 6.48659 5.47783 6.86557 5.36505C7.0013 5.32465 7.14887 5.28074 7.30209 5.21945C7.76694 5.03351 7.80865 4.53372 7.7714 4.30707C7.64399 3.43643 7.16237 3.04811 6.71705 2.82116C7.12777 2.71979 7.55724 2.66602 7.99926 2.66602C9.30443 2.66602 10.5001 3.13485 11.427 3.9133Z" fill="#AAC97C"/>
<path d="M2.68164 7.57791C2.8654 5.26589 4.52356 3.36915 6.71572 2.82812C7.16104 3.05508 7.64266 3.4434 7.77007 4.31404C7.80732 4.54069 7.76561 5.04048 7.30076 5.22642C7.14753 5.28771 6.99995 5.33163 6.86422 5.37202C6.48523 5.48481 6.19853 5.57013 6.13863 5.92951C6.12348 6.02047 6.12224 6.12575 6.12094 6.23656C6.11526 6.7204 6.10834 7.30961 4.93584 7.27179C3.49481 7.2253 4.33735 8.25961 4.86611 8.34096C5.39488 8.42231 5.06948 9.25324 4.29667 8.96851C3.76003 8.7708 2.99923 8.32932 2.68164 7.57791Z" fill="#4B7E41"/>
<path fill-rule="evenodd" clip-rule="evenodd" d="M5.49051 8.71827C6.03601 8.08597 6.91626 8.45481 7.2882 8.71827C9.73679 10.144 9.22537 11.2909 7.95459 12.1122C7.52375 12.3907 7.28181 12.8182 7.15704 13.2687C6.74461 13.2033 6.34793 13.0905 5.97271 12.9363C6.55959 11.7926 6.03455 11.2455 5.68875 10.8853C5.60694 10.8 5.53515 10.7252 5.49051 10.6555C5.24255 10.268 4.80862 9.50864 5.49051 8.71827Z" fill="#4B7E41"/>
<path fill-rule="evenodd" clip-rule="evenodd" d="M13.3317 7.99815C13.3317 9.47207 12.7338 10.8063 11.7674 11.7717C11.0728 11.5505 11.3391 10.521 11.642 9.84623C11.7858 9.52592 11.4389 9.42895 11.0047 9.3076C10.4095 9.14125 9.65034 8.92909 9.76683 8.033C9.88576 7.11814 10.5988 7.11059 11.1343 7.10492C11.5059 7.10098 11.7921 7.09795 11.735 6.7932C11.6771 6.48425 11.3305 6.33035 10.9605 6.16607C10.4396 5.93479 9.87244 5.68294 9.99929 4.94897C10.1294 4.19618 10.8366 3.9537 11.4263 3.91211C12.5912 4.89045 13.3317 6.35782 13.3317 7.99815Z" fill="#4B7E41"/>
</svg>
